<svg width="512" height="512" viewBox="0 0 512 512" fill="none" xmlns="http://www.w3.org/2000/svg">
<g clip-path="url(#clip0_3_5)">
<path d="M219.09 144.449H350.673V92.2201C350.673 88.2345 353.904 85 357.885 85C359.837 85 361.602 85.7688 362.9 87.0238L479.449 186.082C482.486 188.653 482.865 193.205 480.296 196.236C480.014 196.58 479.705 196.881 479.369 197.155L362.538 296.451C359.501 299.023 354.955 298.643 352.394 295.603C351.29 294.303 350.686 292.652 350.691 290.946L350.673 238.717H219.09C215.108 238.717 211.877 235.482 211.877 231.497V151.678C211.877 147.683 215.108 144.449 219.09 144.449ZM161.327 272.299H292.91C296.892 272.299 300.123 275.533 300.123 279.519V359.338C300.123 363.332 296.892 366.567 292.91 366.567H161.327V418.796C161.314 420.502 160.705 422.149 159.606 423.453C157.045 426.484 152.499 426.864 149.462 424.301L32.6305 325.005C32.2951 324.731 31.9861 324.421 31.7036 324.086C29.1346 321.046 29.5142 316.494 32.5511 313.932L149.1 214.874C150.445 213.571 152.244 212.845 154.115 212.85C158.096 212.85 161.327 216.084 161.327 220.07V272.299Z" fill="#14B8A6"/>
<path fill-rule="evenodd" clip-rule="evenodd" d="M512 256C512 397.385 397.385 512 256 512C114.615 512 0 397.385 0 256C0 114.615 114.615 0 256 0C397.385 0 512 114.615 512 256ZM350.673 144.449H219.09C215.108 144.449 211.877 147.683 211.877 151.678V231.497C211.877 235.482 215.108 238.717 219.09 238.717H350.673L350.691 290.946C350.686 292.652 351.29 294.303 352.394 295.603C354.955 298.643 359.501 299.023 362.538 296.451L479.369 197.155C479.705 196.881 480.014 196.58 480.296 196.236C482.865 193.205 482.486 188.653 479.449 186.082L362.9 87.0238C361.602 85.7688 359.837 85 357.885 85C353.904 85 350.673 88.2345 350.673 92.2201V144.449ZM292.91 272.299H161.327V220.07C161.327 216.084 158.096 212.85 154.115 212.85C152.244 212.845 150.445 213.571 149.1 214.874L32.5511 313.932C29.5142 316.494 29.1346 321.046 31.7036 324.086C31.9861 324.421 32.2951 324.731 32.6305 325.005L149.462 424.301C152.499 426.864 157.045 426.484 159.606 423.453C160.705 422.149 161.314 420.502 161.327 418.796V366.567H292.91C296.892 366.567 300.123 363.332 300.123 359.338V279.519C300.123 275.533 296.892 272.299 292.91 272.299Z" fill="white"/>
</g>
<defs>
<clipPath id="clip0_3_5">
<rect width="512" height="512" fill="white"/>
</clipPath>
</defs>
</svg>
